<svg aria-hidden="true" style="position: absolute; width: 0; height: 0; overflow: hidden;" version="1.1" xmlns="http://www.w3.org/2000/svg" xmlns:xlink="http://www.w3.org/1999/xlink">
    <defs>
        <symbol id="icon-facebook" viewBox="0 0 32 32">
            <path d="M27.589 3.469h-22.445c-0.54 0-0.976 0.436-0.976 0.976v22.445c0 0.54 0.436 0.976 0.976 0.976h22.445c0.54 0 0.976-0.436 0.976-0.976v-22.445c0-0.54-0.436-0.976-0.976-0.976zM24.771 10.59h-1.949c-1.528 0-1.824 0.726-1.824 1.793v2.351h3.647l-0.476 3.681h-3.172v9.451h-3.803v-9.448h-3.181v-3.684h3.181v-2.714c0-3.15 1.924-4.867 4.736-4.867 1.348 0 2.504 0.101 2.842 0.146v3.291h-0.003z"></path>
        </symbol>
        <symbol id="icon-linkedin" viewBox="0 0 32 32">
            <path d="M27.579 3.469h-22.445c-0.54 0-0.976 0.436-0.976 0.976v22.445c0 0.54 0.436 0.976 0.976 0.976h22.445c0.54 0 0.976-0.436 0.976-0.976v-22.445c0-0.54-0.436-0.976-0.976-0.976zM11.395 24.258h-3.62v-11.643h3.62v11.643zM9.587 11.023c-0.415 0-0.821-0.123-1.166-0.354s-0.614-0.558-0.773-0.942-0.2-0.805-0.119-1.212c0.081-0.407 0.281-0.781 0.574-1.074s0.667-0.493 1.074-0.574 0.829-0.039 1.212 0.119c0.383 0.159 0.711 0.428 0.942 0.773s0.354 0.751 0.354 1.166c-0.003 1.159-0.942 2.098-2.098 2.098zM24.948 24.258h-3.617v-5.663c0-1.351-0.024-3.086-1.882-3.086-1.882 0-2.171 1.47-2.171 2.989v5.761h-3.614v-11.643h3.47v1.592h0.049c0.482-0.915 1.662-1.882 3.425-1.882 3.666 0 4.34 2.412 4.34 5.547v6.386z"></path>
        </symbol>
        <symbol id="icon-twitter" viewBox="0 0 31 32">
            <path d="M28.301 7.809c-0.933 0.403-1.949 0.692-2.995 0.805 1.086-0.645 1.899-1.665 2.287-2.867-1.019 0.606-2.135 1.031-3.3 1.256-0.487-0.52-1.075-0.935-1.729-1.217s-1.359-0.428-2.071-0.426c-2.882 0-5.2 2.336-5.2 5.203 0 0.403 0.049 0.805 0.128 1.192-4.315-0.226-8.164-2.287-10.722-5.444-0.466 0.796-0.711 1.703-0.708 2.626 0 1.805 0.918 3.397 2.318 4.334-0.825-0.032-1.63-0.259-2.351-0.662v0.064c0 2.528 1.787 4.623 4.169 5.105-0.447 0.116-0.907 0.176-1.369 0.177-0.338 0-0.659-0.034-0.982-0.079 0.659 2.062 2.577 3.559 4.861 3.608-1.787 1.4-4.025 2.223-6.456 2.223-0.436 0-0.839-0.015-1.256-0.064 2.305 1.479 5.041 2.333 7.987 2.333 9.563 0 14.797-7.923 14.797-14.8 0-0.226 0-0.451-0.015-0.677 1.012-0.741 1.9-1.659 2.607-2.69z"></path>
        </symbol>
        <symbol id="icon-phone" viewBox="0 0 32 32">
            <path d="M21.185 1.803h-10.37c-2.152 0-3.889 1.737-3.889 3.889v20.741c0 2.152 1.737 3.889 3.889 3.889h10.37c2.152 0 3.889-1.737 3.889-3.889v-20.741c0-2.152-1.737-3.889-3.889-3.889zM18.593 27.729h-5.185v-1.296h5.185v1.296zM22.805 23.84h-13.611v-18.148h13.611v18.148z"></path>
        </symbol>
        <symbol id="icon-alien" viewBox="0 0 32 32">
            <path d="M13.386 14.288c1.578 2.624 1.346 5.712-0.541 6.96-1.887 1.216-4.702 0.080-6.295-2.544-1.578-2.624-1.33-5.744 0.557-6.96s4.702-0.080 6.279 2.544zM16 25.2c3.093 0 3.867-1.2 3.867-1.2s-0.773 3.2-3.867 3.2c-3.093 0-3.867-3.152-3.867-3.2 0 0 0.773 1.2 3.867 1.2zM24.893 11.744c1.887 1.216 2.134 4.336 0.557 6.96-1.593 2.624-4.408 3.76-6.295 2.544-1.887-1.248-2.119-4.336-0.541-6.96s4.393-3.76 6.279-2.544zM16 28.8c3.867 0 12.373-8.224 12.373-14.4s-5.553-11.2-12.373-11.2c-6.821 0-12.373 5.024-12.373 11.2s8.507 14.4 12.373 14.4zM16 0c8.507 0 15.467 6.464 15.467 14.4 0 6.528-8.785 17.6-15.467 17.6s-15.467-11.072-15.467-17.6c0-7.936 6.96-14.4 15.467-14.4z"></path>
        </symbol>
        <symbol id="icon-infinity" viewBox="0 0 32 32">
            <path d="M24.59 8.762c-1.874 0-3.644 0.753-4.907 2.058l-9.15 8.395c-0.833 0.861-1.939 1.332-3.124 1.332-2.434 0-4.425-2.031-4.425-4.547s1.991-4.547 4.425-4.547c1.184 0 2.291 0.471 3.176 1.386l1.471 1.345 1.991-1.803-1.666-1.493c-0.652-0.676-1.427-1.212-2.28-1.577s-1.768-0.551-2.692-0.549c-3.879 0-7.029 3.256-7.029 7.238s3.15 7.238 7.029 7.238c1.874 0 3.644-0.753 4.907-2.058l9.15-8.395c0.833-0.861 1.939-1.332 3.124-1.332 2.434 0 4.425 2.031 4.425 4.547s-1.991 4.547-4.425 4.547c-1.171 0-2.291-0.471-3.176-1.386l-1.51-1.359-1.952 1.803 1.666 1.507c0.654 0.673 1.429 1.206 2.282 1.568s1.767 0.547 2.69 0.544c3.879 0 7.029-3.242 7.029-7.225 0-4.036-3.15-7.238-7.029-7.238z"></path>
        </symbol>
        <symbol id="icon-cutlery" viewBox="0 0 32 32">
            <path d="M9.411 17.98l4.644-4.644-10.158-10.142c-0.788-0.788-2.15-0.574-2.642 0.443-1.165 2.445-0.738 5.448 1.28 7.483l6.876 6.86zM20.537 15.010c2.511 1.165 6.039 0.345 8.648-2.265 3.134-3.134 3.742-7.631 1.329-10.043-2.396-2.396-6.892-1.805-10.043 1.329-2.609 2.609-3.43 6.137-2.265 8.648l-14.868 14.868c-0.307 0.307-0.479 0.723-0.479 1.157s0.172 0.85 0.479 1.157c0.307 0.307 0.723 0.479 1.157 0.479s0.85-0.172 1.157-0.479l10.158-10.125 10.142 10.142c0.152 0.152 0.332 0.273 0.531 0.355s0.411 0.125 0.626 0.125c0.215 0 0.428-0.042 0.626-0.125s0.379-0.203 0.531-0.355c0.152-0.152 0.272-0.332 0.355-0.531s0.125-0.411 0.125-0.626c0-0.215-0.042-0.428-0.125-0.626s-0.203-0.379-0.355-0.531l-10.142-10.142 2.412-2.412z"></path>
        </symbol>
        <symbol id="icon-map" viewBox="0 0 31 32">
            <path fill="#000" style="fill: var(--color1, #000)" d="M15.66 18.317c2.879 0 5.22-2.341 5.22-5.22s-2.341-5.22-5.22-5.22c-2.879 0-5.22 2.341-5.22 5.22s2.341 5.22 5.22 5.22zM15.66 10.488c1.439 0 2.61 1.171 2.61 2.61s-1.171 2.61-2.61 2.61c-1.439 0-2.61-1.171-2.61-2.61s1.171-2.61 2.61-2.61z"></path>
            <path fill="#fff" style="fill: var(--color2, #fff)" d="M14.903 28.514c0.221 0.158 0.485 0.243 0.757 0.243s0.536-0.085 0.757-0.243c0.397-0.28 9.721-7.013 9.683-15.417 0-5.756-4.684-10.44-10.44-10.44s-10.44 4.684-10.44 10.433c-0.038 8.411 9.286 15.143 9.683 15.423zM15.66 5.268c4.318 0 7.83 3.512 7.83 7.836 0.027 5.791-5.726 10.992-7.83 12.697-2.102-1.707-7.857-6.908-7.83-12.704 0-4.318 3.512-7.83 7.83-7.83z"></path>
        </symbol>
    </defs>
</svg>